<svg width="85" height="88" viewBox="0 0 85 88" fill="none" xmlns="http://www.w3.org/2000/svg">
<path d="M45.8145 37.2773C31.8463 23.6865 41.468 0 60.9571 0C80.4461 0 90.0678 23.6865 76.0995 37.2773L60.9571 52.0105L45.8145 37.2773Z" fill="#64DBAF"/>
<path d="M45.9023 84.7227C31.934 98.3135 41.5558 122 61.0448 122C80.5338 122 90.1556 98.3135 76.1873 84.7227L61.0448 69.9895L45.9023 84.7227Z" fill="#64DBAF"/>
<path d="M37.2773 76.1857C23.6865 90.154 0 80.5322 0 61.0432C0 41.5542 23.6865 31.9324 37.2773 45.9007L52.0105 61.0432L37.2773 76.1857Z" fill="#64DBAF"/>
<path d="M84.7227 76.0978C98.3135 90.0661 122 80.4443 122 60.9553C122 41.4663 98.3135 31.8445 84.7227 45.8128L69.9895 60.9553L84.7227 76.0978Z" fill="#64DBAF"/>
</svg>
