<svg width="14" height="14" viewBox="0 0 14 14" fill="none" xmlns="http://www.w3.org/2000/svg">
<path d="M7 1.75L5.88467 5.14092C5.82759 5.31446 5.73055 5.47218 5.60136 5.60136C5.47218 5.73055 5.31446 5.82759 5.14092 5.88467L1.75 7L5.14092 8.11533C5.31446 8.17241 5.47218 8.26945 5.60136 8.39864C5.73055 8.52782 5.82759 8.68554 5.88467 8.85908L7 12.25L8.11533 8.85908C8.17241 8.68554 8.26945 8.52782 8.39864 8.39864C8.52782 8.26945 8.68554 8.17241 8.85908 8.11533L12.25 7L8.85908 5.88467C8.68554 5.82759 8.52782 5.73055 8.39864 5.60136C8.26945 5.47218 8.17241 5.31446 8.11533 5.14092L7 1.75Z" stroke="#00583F" stroke-linecap="round" stroke-linejoin="round"/>
<path d="M2.91663 1.75V4.08333" stroke="#00583F" stroke-linecap="round" stroke-linejoin="round"/>
<path d="M11.0834 9.9165V12.2498" stroke="#00583F" stroke-linecap="round" stroke-linejoin="round"/>
<path d="M1.75 2.9165H4.08333" stroke="#00583F" stroke-linecap="round" stroke-linejoin="round"/>
<path d="M9.91663 11.0835H12.25" stroke="#00583F" stroke-linecap="round" stroke-linejoin="round"/>
</svg>
