<svg width="20" height="20" viewBox="0 0 20 20" fill="none" xmlns="http://www.w3.org/2000/svg">
<path d="M10 18.3337C14.6024 18.3337 18.3334 14.6027 18.3334 10.0003C18.3334 5.39795 14.6024 1.66699 10 1.66699C5.39765 1.66699 1.66669 5.39795 1.66669 10.0003C1.66669 14.6027 5.39765 18.3337 10 18.3337Z" stroke="#171D1A" stroke-linecap="round" stroke-linejoin="round"/>
<path d="M13.3334 6.66699H8.33335C7.89133 6.66699 7.4674 6.84259 7.15484 7.15515C6.84228 7.46771 6.66669 7.89163 6.66669 8.33366C6.66669 8.77569 6.84228 9.19961 7.15484 9.51217C7.4674 9.82473 7.89133 10.0003 8.33335 10.0003H11.6667C12.1087 10.0003 12.5326 10.1759 12.8452 10.4885C13.1578 10.801 13.3334 11.225 13.3334 11.667C13.3334 12.109 13.1578 12.5329 12.8452 12.8455C12.5326 13.1581 12.1087 13.3337 11.6667 13.3337H6.66669" stroke="#171D1A" stroke-linecap="round" stroke-linejoin="round"/>
<path d="M10 15V5" stroke="#171D1A" stroke-linecap="round" stroke-linejoin="round"/>
</svg>
