<svg width="16" height="16" viewBox="0 0 16 16" fill="none" xmlns="http://www.w3.org/2000/svg">
<g clip-path="url(#clip0_1185_13072)">
<path d="M1.33325 1.33301L14.6666 14.6663" stroke="#171D1A" stroke-linecap="round" stroke-linejoin="round"/>
<path d="M5.56665 1.79375C6.77373 1.3223 8.09205 1.21287 9.36034 1.47885C10.6286 1.74483 11.7919 2.37468 12.7079 3.29136C13.6239 4.20804 14.2528 5.37181 14.5178 6.6403C14.7828 7.9088 14.6724 9.22704 14.2 10.4338" stroke="#171D1A" stroke-linecap="round" stroke-linejoin="round"/>
<path d="M12.72 12.7203C12.1002 13.3401 11.3643 13.8318 10.5545 14.1673C9.74463 14.5027 8.87662 14.6754 8.00004 14.6754C7.12345 14.6754 6.25545 14.5027 5.44559 14.1673C4.63573 13.8318 3.89988 13.3401 3.28004 12.7203C2.6602 12.1004 2.16852 11.3646 1.83306 10.5547C1.49761 9.74486 1.32495 8.87686 1.32495 8.00027C1.32495 7.12369 1.49761 6.25569 1.83306 5.44583C2.16852 4.63597 2.6602 3.90011 3.28004 3.28027" stroke="#171D1A" stroke-linecap="round" stroke-linejoin="round"/>
</g>
<defs>
<clipPath id="clip0_1185_13072">
<rect width="16" height="16" fill="white"/>
</clipPath>
</defs>
</svg>
