<svg width="16" height="16" viewBox="0 0 16 16" fill="none" xmlns="http://www.w3.org/2000/svg">
<path d="M13.3333 6.66634C13.3333 10.6663 7.99999 14.6663 7.99999 14.6663C7.99999 14.6663 2.66666 10.6663 2.66666 6.66634C2.66666 5.25185 3.22856 3.8953 4.22875 2.89511C5.22895 1.89491 6.5855 1.33301 7.99999 1.33301C9.41448 1.33301 10.771 1.89491 11.7712 2.89511C12.7714 3.8953 13.3333 5.25185 13.3333 6.66634Z" stroke="#171D1A" stroke-linecap="round" stroke-linejoin="round"/>
<path d="M8 8.66699C9.10457 8.66699 10 7.77156 10 6.66699C10 5.56242 9.10457 4.66699 8 4.66699C6.89543 4.66699 6 5.56242 6 6.66699C6 7.77156 6.89543 8.66699 8 8.66699Z" stroke="#171D1A" stroke-linecap="round" stroke-linejoin="round"/>
</svg>
