<svg width="58" height="58" viewBox="0 0 58 58" fill="none" xmlns="http://www.w3.org/2000/svg">
<path d="M17.001 48.1992H41.001" stroke="#D8E6DD" stroke-width="3.6" stroke-linecap="round" stroke-linejoin="round"/>
<path d="M24.2012 48.2012C37.4012 42.2012 26.1212 32.8412 31.4012 24.2012" stroke="#D8E6DD" stroke-width="3.6" stroke-linecap="round" stroke-linejoin="round"/>
<path d="M23.0018 22.7589C25.6418 24.6789 27.3218 28.0389 28.5218 31.6389C23.7218 32.5989 20.1218 32.5989 17.0018 30.9189C14.1218 29.4789 11.4818 26.3589 9.80176 20.8389C16.5218 19.6389 20.3618 20.8389 23.0018 22.7589Z" stroke="#D8E6DD" stroke-width="3.6" stroke-linecap="round" stroke-linejoin="round"/>
<path d="M34.0395 14.6018C32.2097 17.4615 31.2893 20.8085 31.3995 24.2018C35.9595 23.9618 39.3195 22.7618 41.7195 20.8418C44.1195 18.4418 45.5595 15.3218 45.7995 9.80176C39.3195 10.0418 36.1995 12.2018 34.0395 14.6018Z" stroke="#D8E6DD" stroke-width="3.6" stroke-linecap="round" stroke-linejoin="round"/>
</svg>
