<svg width="33" height="32" viewBox="0 0 33 32" fill="none" xmlns="http://www.w3.org/2000/svg">
<path d="M6.08337 7.99984L16.75 2.6665L27.4167 7.99984" stroke="#006C4F" stroke-linecap="round" stroke-linejoin="round"/>
<path d="M24.75 13.3335L30.0833 16.0002V26.6668C30.0833 27.3741 29.8023 28.0524 29.3022 28.5524C28.8021 29.0525 28.1239 29.3335 27.4166 29.3335H6.08329C5.37605 29.3335 4.69777 29.0525 4.19767 28.5524C3.69758 28.0524 3.41663 27.3741 3.41663 26.6668V16.0002L8.74996 13.3335" stroke="#006C4F" stroke-linecap="round" stroke-linejoin="round"/>
<path d="M19.4167 29.3335V24.0002C19.4167 23.2929 19.1358 22.6146 18.6357 22.1145C18.1356 21.6144 17.4573 21.3335 16.75 21.3335C16.0428 21.3335 15.3645 21.6144 14.8644 22.1145C14.3643 22.6146 14.0834 23.2929 14.0834 24.0002V29.3335" stroke="#006C4F" stroke-linecap="round" stroke-linejoin="round"/>
<path d="M24.75 6.6665V29.3332" stroke="#006C4F" stroke-linecap="round" stroke-linejoin="round"/>
<path d="M8.75 6.6665V29.3332" stroke="#006C4F" stroke-linecap="round" stroke-linejoin="round"/>
<path d="M16.75 14.6668C18.2228 14.6668 19.4167 13.4729 19.4167 12.0002C19.4167 10.5274 18.2228 9.3335 16.75 9.3335C15.2773 9.3335 14.0834 10.5274 14.0834 12.0002C14.0834 13.4729 15.2773 14.6668 16.75 14.6668Z" stroke="#006C4F" stroke-linecap="round" stroke-linejoin="round"/>
</svg>
