<svg width="33" height="32" viewBox="0 0 33 32" fill="none" xmlns="http://www.w3.org/2000/svg">
<path d="M16.25 4L13.7007 11.7507C13.5702 12.1473 13.3484 12.5078 13.0531 12.8031C12.7578 13.0984 12.3973 13.3202 12.0007 13.4507L4.25 16L12.0007 18.5493C12.3973 18.6798 12.7578 18.9016 13.0531 19.1969C13.3484 19.4922 13.5702 19.8527 13.7007 20.2493L16.25 28L18.7993 20.2493C18.9298 19.8527 19.1516 19.4922 19.4469 19.1969C19.7422 18.9016 20.1027 18.6798 20.4993 18.5493L28.25 16L20.4993 13.4507C20.1027 13.3202 19.7422 13.0984 19.4469 12.8031C19.1516 12.5078 18.9298 12.1473 18.7993 11.7507L16.25 4Z" stroke="#B32053" stroke-linecap="round" stroke-linejoin="round"/>
<path d="M6.91666 4V9.33333" stroke="#B32053" stroke-linecap="round" stroke-linejoin="round"/>
<path d="M25.5833 22.6665V27.9998" stroke="#B32053" stroke-linecap="round" stroke-linejoin="round"/>
<path d="M4.25 6.6665H9.58333" stroke="#B32053" stroke-linecap="round" stroke-linejoin="round"/>
<path d="M22.9167 25.3335H28.25" stroke="#B32053" stroke-linecap="round" stroke-linejoin="round"/>
</svg>
