<svg width="16" height="16" viewBox="0 0 16 16" fill="none" xmlns="http://www.w3.org/2000/svg">
<path d="M4.66667 13.3335H11.3333" stroke="#171D1A" stroke-linecap="round" stroke-linejoin="round"/>
<path d="M6.66667 13.3332C10.3333 11.6665 7.2 9.0665 8.66667 6.6665" stroke="#171D1A" stroke-linecap="round" stroke-linejoin="round"/>
<path d="M6.33333 6.26689C7.06667 6.80022 7.53333 7.73356 7.86667 8.73356C6.53333 9.00022 5.53333 9.00022 4.66667 8.53356C3.86667 8.13356 3.13333 7.26689 2.66667 5.73356C4.53333 5.40022 5.6 5.73356 6.33333 6.26689Z" stroke="#171D1A" stroke-linecap="round" stroke-linejoin="round"/>
<path d="M9.4 3.99984C8.89172 4.79421 8.63605 5.72394 8.66667 6.6665C9.93333 6.59984 10.8667 6.2665 11.5333 5.73317C12.2 5.0665 12.6 4.19984 12.6667 2.6665C10.8667 2.73317 10 3.33317 9.4 3.99984Z" stroke="#171D1A" stroke-linecap="round" stroke-linejoin="round"/>
</svg>
