<svg width="34" height="26" viewBox="0 0 34 26" fill="none" xmlns="http://www.w3.org/2000/svg">
<path d="M0.862793 25.9412V18.5359C0.862793 16.4062 1.25158 14.1919 2.02917 11.8928C2.83031 9.5696 3.91421 7.37946 5.28087 5.32243C6.67109 3.2412 8.22625 1.48667 9.94636 0.0588379L15.8843 4.01561C14.494 6.16944 13.3277 8.42008 12.3851 10.7675C11.4662 13.0908 11.0185 15.656 11.042 18.4633V25.9412H0.862793ZM18.7825 25.9412V18.5359C18.7825 16.4062 19.1713 14.1919 19.9489 11.8928C20.75 9.5696 21.8339 7.37946 23.2006 5.32243C24.5908 3.2412 26.146 1.48667 27.8661 0.0588379L33.804 4.01561C32.4137 6.16944 31.2474 8.42008 30.3049 10.7675C29.3859 13.0908 28.9382 15.656 28.9618 18.4633V25.9412H18.7825Z" fill="#B32053"/>
</svg>
