<svg width="14" height="14" viewBox="0 0 14 14" fill="none" xmlns="http://www.w3.org/2000/svg">
<g clip-path="url(#clip0_1067_11515)">
<path d="M9.91666 8.16699V1.16699" stroke="#51606E" stroke-linecap="round" stroke-linejoin="round"/>
<path d="M5.25001 10.5703L5.83334 8.16699H2.43251C2.25139 8.16699 2.07275 8.12482 1.91076 8.04382C1.74876 7.96282 1.60784 7.84522 1.49917 7.70033C1.3905 7.55543 1.31706 7.38722 1.28466 7.20903C1.25226 7.03083 1.26179 6.84753 1.31251 6.67366L2.67167 2.00699C2.74235 1.76466 2.88973 1.55178 3.09167 1.40033C3.29362 1.24887 3.53924 1.16699 3.79167 1.16699H11.6667C11.9761 1.16699 12.2728 1.28991 12.4916 1.5087C12.7104 1.72749 12.8333 2.02424 12.8333 2.33366V7.00033C12.8333 7.30974 12.7104 7.60649 12.4916 7.82528C12.2728 8.04408 11.9761 8.16699 11.6667 8.16699H10.0567C9.83962 8.16711 9.62691 8.22777 9.44245 8.34216C9.25799 8.45654 9.10909 8.62012 9.0125 8.81449L7.00001 12.8337C6.72492 12.8303 6.45416 12.7647 6.20795 12.642C5.96175 12.5192 5.74646 12.3424 5.57819 12.1248C5.40991 11.9072 5.29299 11.6543 5.23616 11.3851C5.17933 11.1159 5.18406 10.8374 5.25001 10.5703Z" stroke="#51606E" stroke-linecap="round" stroke-linejoin="round"/>
</g>
<defs>
<clipPath id="clip0_1067_11515">
<rect width="14" height="14" fill="white"/>
</clipPath>
</defs>
</svg>
