<svg width="20" height="20" viewBox="0 0 20 20" fill="none" xmlns="http://www.w3.org/2000/svg">
<path d="M10.0003 1.66675C14.6028 1.66675 18.3337 5.39758 18.3337 10.0001C18.3337 14.6026 14.6028 18.3334 10.0003 18.3334C5.39783 18.3334 1.66699 14.6026 1.66699 10.0001C1.66699 5.39758 5.39783 1.66675 10.0003 1.66675ZM10.0003 5.00008C9.77931 5.00008 9.56735 5.08788 9.41107 5.24416C9.25479 5.40044 9.16699 5.6124 9.16699 5.83341V10.0001C9.16704 10.2211 9.25487 10.433 9.41116 10.5892L11.9112 13.0892C12.0683 13.241 12.2788 13.325 12.4973 13.3231C12.7158 13.3212 12.9248 13.2336 13.0793 13.0791C13.2338 12.9246 13.3215 12.7156 13.3234 12.4971C13.3253 12.2786 13.2413 12.0681 13.0895 11.9109L10.8337 9.65508V5.83341C10.8337 5.6124 10.7459 5.40044 10.5896 5.24416C10.4333 5.08788 10.2213 5.00008 10.0003 5.00008Z" fill="black" fill-opacity="0.5"/>
</svg>
