<svg width="20" height="20" viewBox="0 0 20 20" fill="none" xmlns="http://www.w3.org/2000/svg">
<path fill-rule="evenodd" clip-rule="evenodd" d="M9.38467 18.4451C9.38467 18.4451 3.33301 13.3484 3.33301 8.33342C3.33301 6.5653 4.03539 4.86961 5.28563 3.61937C6.53587 2.36913 8.23156 1.66675 9.99967 1.66675C11.7678 1.66675 13.4635 2.36913 14.7137 3.61937C15.964 4.86961 16.6663 6.5653 16.6663 8.33342C16.6663 13.3484 10.6147 18.4451 10.6147 18.4451C10.278 18.7551 9.72384 18.7517 9.38467 18.4451ZM9.99967 11.2501C10.3827 11.2501 10.762 11.1746 11.1158 11.0281C11.4697 10.8815 11.7912 10.6666 12.0621 10.3958C12.3329 10.125 12.5477 9.80344 12.6943 9.44957C12.8409 9.09571 12.9163 8.71644 12.9163 8.33342C12.9163 7.95039 12.8409 7.57112 12.6943 7.21726C12.5477 6.86339 12.3329 6.54186 12.0621 6.27102C11.7912 6.00018 11.4697 5.78534 11.1158 5.63877C10.762 5.49219 10.3827 5.41675 9.99967 5.41675C9.22613 5.41675 8.48426 5.72404 7.93728 6.27102C7.3903 6.818 7.08301 7.55987 7.08301 8.33342C7.08301 9.10696 7.3903 9.84883 7.93728 10.3958C8.48426 10.9428 9.22613 11.2501 9.99967 11.2501Z" fill="black" fill-opacity="0.5"/>
</svg>
