<svg width="20" height="20" viewBox="0 0 20 20" fill="none" xmlns="http://www.w3.org/2000/svg">
<path d="M16.666 3.33325H3.33268C2.41602 3.33325 1.67435 4.08325 1.67435 4.99992L1.66602 14.9999C1.66602 15.9166 2.41602 16.6666 3.33268 16.6666H16.666C17.5827 16.6666 18.3327 15.9166 18.3327 14.9999V4.99992C18.3327 4.08325 17.5827 3.33325 16.666 3.33325ZM16.3327 6.87492L10.441 10.5583C10.1743 10.7249 9.82435 10.7249 9.55768 10.5583L3.66602 6.87492C3.58246 6.82801 3.50928 6.76464 3.45092 6.68863C3.39256 6.61262 3.35023 6.52557 3.3265 6.43273C3.30276 6.33989 3.2981 6.2432 3.31281 6.14851C3.32752 6.05382 3.3613 5.9631 3.41208 5.88184C3.46287 5.80058 3.52962 5.73046 3.60829 5.67575C3.68696 5.62103 3.77591 5.58284 3.86976 5.5635C3.96362 5.54416 4.06042 5.54406 4.15431 5.56321C4.2482 5.58236 4.33724 5.62036 4.41602 5.67492L9.99935 9.16658L15.5827 5.67492C15.6615 5.62036 15.7505 5.58236 15.8444 5.56321C15.9383 5.54406 16.0351 5.54416 16.1289 5.5635C16.2228 5.58284 16.3117 5.62103 16.3904 5.67575C16.4691 5.73046 16.5358 5.80058 16.5866 5.88184C16.6374 5.9631 16.6712 6.05382 16.6859 6.14851C16.7006 6.2432 16.6959 6.33989 16.6722 6.43273C16.6485 6.52557 16.6061 6.61262 16.5478 6.68863C16.4894 6.76464 16.4162 6.82801 16.3327 6.87492Z" fill="#B32053"/>
</svg>
