<svg width="20" height="20" viewBox="0 0 20 20" fill="none" xmlns="http://www.w3.org/2000/svg">
<path fill-rule="evenodd" clip-rule="evenodd" d="M9.38565 18.4451C9.38565 18.4451 3.33398 13.3484 3.33398 8.33342C3.33398 6.5653 4.03636 4.86961 5.28661 3.61937C6.53685 2.36913 8.23254 1.66675 10.0007 1.66675C11.7688 1.66675 13.4645 2.36913 14.7147 3.61937C15.9649 4.86961 16.6673 6.5653 16.6673 8.33342C16.6673 13.3484 10.6157 18.4451 10.6157 18.4451C10.279 18.7551 9.72482 18.7517 9.38565 18.4451ZM10.0007 11.2501C10.3837 11.2501 10.7629 11.1746 11.1168 11.0281C11.4707 10.8815 11.7922 10.6666 12.063 10.3958C12.3339 10.125 12.5487 9.80344 12.6953 9.44957C12.8419 9.09571 12.9173 8.71644 12.9173 8.33342C12.9173 7.95039 12.8419 7.57112 12.6953 7.21726C12.5487 6.86339 12.3339 6.54186 12.063 6.27102C11.7922 6.00018 11.4707 5.78534 11.1168 5.63877C10.7629 5.49219 10.3837 5.41675 10.0007 5.41675C9.2271 5.41675 8.48524 5.72404 7.93826 6.27102C7.39128 6.818 7.08398 7.55987 7.08398 8.33342C7.08398 9.10696 7.39128 9.84883 7.93826 10.3958C8.48524 10.9428 9.2271 11.2501 10.0007 11.2501Z" fill="#B32053"/>
</svg>
