<svg width="20" height="20" viewBox="0 0 20 20" fill="none" xmlns="http://www.w3.org/2000/svg">
<path fill-rule="evenodd" clip-rule="evenodd" d="M5.00033 6.75591C5.00033 3.94508 7.23866 1.66675 10.0003 1.66675C12.762 1.66675 15.0003 3.94508 15.0003 6.75591C15.0003 9.54508 13.4045 12.7992 10.9145 13.9634C10.6283 14.0972 10.3162 14.1666 10.0003 14.1666C9.68441 14.1666 9.37234 14.0972 9.08616 13.9634C6.59616 12.7992 5.00033 9.54508 5.00033 6.75591ZM10.0003 8.33341C10.4424 8.33341 10.8663 8.15782 11.1788 7.84526C11.4914 7.5327 11.667 7.10878 11.667 6.66675C11.667 6.22472 11.4914 5.8008 11.1788 5.48824C10.8663 5.17568 10.4424 5.00008 10.0003 5.00008C9.5583 5.00008 9.13438 5.17568 8.82182 5.48824C8.50925 5.8008 8.33366 6.22472 8.33366 6.66675C8.33366 7.10878 8.50925 7.5327 8.82182 7.84526C9.13438 8.15782 9.5583 8.33341 10.0003 8.33341ZM3.02283 12.1117C3.07385 12.1761 3.1117 12.2498 3.1342 12.3288C3.15671 12.4078 3.16343 12.4904 3.15399 12.572C3.14455 12.6536 3.11913 12.7325 3.07918 12.8042C3.03923 12.8759 2.98553 12.9391 2.92116 12.9901C2.44366 13.3684 2.29199 13.7026 2.29199 13.9584C2.29199 14.1609 2.38366 14.4067 2.65866 14.6917C2.93699 14.9792 3.37199 15.2709 3.96366 15.5392C5.00866 16.0134 6.45366 16.3726 8.12533 16.5284V16.1459C8.12538 16.0259 8.16001 15.9083 8.22508 15.8075C8.29015 15.7066 8.3829 15.6265 8.49225 15.577C8.6016 15.5274 8.72291 15.5103 8.84168 15.5279C8.96045 15.5454 9.07166 15.5968 9.16199 15.6759L10.412 16.7692C10.4791 16.8279 10.5328 16.9002 10.5696 16.9814C10.6064 17.0625 10.6255 17.1506 10.6255 17.2397C10.6255 17.3288 10.6064 17.4168 10.5696 17.498C10.5328 17.5791 10.4791 17.6514 10.412 17.7101L9.16199 18.8042C9.0716 18.8834 8.96032 18.9348 8.84148 18.9523C8.72263 18.9698 8.60125 18.9527 8.49187 18.903C8.38249 18.8534 8.28975 18.7732 8.22474 18.6722C8.15973 18.5712 8.12522 18.4535 8.12533 18.3334V17.7834C6.30449 17.6242 4.67533 17.2342 3.44699 16.6776C2.76866 16.3701 2.18449 15.9984 1.76033 15.5609C1.33449 15.1192 1.04199 14.5784 1.04199 13.9584C1.04199 13.1667 1.51449 12.5101 2.14533 12.0101C2.27521 11.9073 2.44058 11.8603 2.60511 11.8793C2.76965 11.8984 2.91989 11.982 3.02283 12.1117ZM16.9778 12.1117C17.0808 11.982 17.231 11.8984 17.3955 11.8793C17.5601 11.8603 17.7254 11.9073 17.8553 12.0101C18.4862 12.5101 18.9587 13.1667 18.9587 13.9584C18.9587 15.1067 17.9853 15.9667 16.8362 16.5426C15.6353 17.1451 13.9928 17.5709 12.147 17.7584C11.982 17.7752 11.8171 17.7258 11.6886 17.621C11.56 17.5162 11.4784 17.3647 11.4616 17.1997C11.4448 17.0347 11.4942 16.8698 11.599 16.7412C11.7038 16.6127 11.8553 16.531 12.0203 16.5142C13.7687 16.3376 15.2512 15.9392 16.2762 15.4251C17.3545 14.8851 17.7087 14.3392 17.7087 13.9584C17.7087 13.7026 17.557 13.3684 17.0795 12.9901C17.0151 12.9391 16.9614 12.8759 16.9215 12.8042C16.8815 12.7325 16.8561 12.6536 16.8467 12.572C16.8372 12.4904 16.8439 12.4078 16.8664 12.3288C16.889 12.2498 16.9268 12.1761 16.9778 12.1117Z" fill="black" fill-opacity="0.5"/>
</svg>
