<svg width="20" height="20" viewBox="0 0 20 20" fill="none" xmlns="http://www.w3.org/2000/svg">
<path fill-rule="evenodd" clip-rule="evenodd" d="M6.66699 3.33343C5.78294 3.33343 4.93509 3.68462 4.30997 4.30974C3.68485 4.93486 3.33366 5.7827 3.33366 6.66676C3.33366 7.55081 3.68485 8.39866 4.30997 9.02378C4.93509 9.6489 5.78294 10.0001 6.66699 10.0001C7.55105 10.0001 8.39889 9.6489 9.02401 9.02378C9.64914 8.39866 10.0003 7.55081 10.0003 6.66676C10.0003 5.7827 9.64914 4.93486 9.02401 4.30974C8.39889 3.68462 7.55105 3.33343 6.66699 3.33343ZM5.00033 10.8334C4.11627 10.8334 3.26842 11.1846 2.6433 11.8097C2.01818 12.4349 1.66699 13.2827 1.66699 14.1668V15.0001C1.66699 15.4421 1.84259 15.866 2.15515 16.1786C2.46771 16.4912 2.89163 16.6668 3.33366 16.6668H10.0003C10.4424 16.6668 10.8663 16.4912 11.1788 16.1786C11.4914 15.866 11.667 15.4421 11.667 15.0001V14.1668C11.667 13.2827 11.3158 12.4349 10.6907 11.8097C10.0656 11.1846 9.21771 10.8334 8.33366 10.8334H5.00033ZM11.042 9.08759C11.4403 8.37093 11.667 7.54593 11.667 6.66676C11.6672 5.81963 11.4521 4.98633 11.042 4.24509C11.5152 3.79737 12.1092 3.4981 12.7506 3.38428C13.392 3.27046 14.0527 3.34708 14.651 3.60466C15.2494 3.86225 15.7591 4.2895 16.1173 4.83363C16.4754 5.37776 16.6663 6.01491 16.6663 6.66634C16.6663 7.31777 16.4754 7.95492 16.1173 8.49905C15.7591 9.04318 15.2494 9.47044 14.651 9.72802C14.0527 9.9856 13.392 10.0622 12.7506 9.9484C12.1092 9.83458 11.5152 9.53532 11.042 9.08759ZM12.8887 16.6668C13.172 16.1768 13.3345 15.6076 13.3345 15.0001V14.1668C13.336 12.9366 12.8825 11.7493 12.0612 10.8334H15.0003C15.8844 10.8334 16.7322 11.1846 17.3573 11.8097C17.9825 12.4349 18.3337 13.2827 18.3337 14.1668V15.0001C18.3337 15.4421 18.1581 15.866 17.8455 16.1786C17.5329 16.4912 17.109 16.6668 16.667 16.6668H12.8887Z" fill="black" fill-opacity="0.5"/>
</svg>
