<svg width="20" height="20" viewBox="0 0 20 20" fill="none" xmlns="http://www.w3.org/2000/svg">
<path d="M12.464 11.0883L12.0849 11.4658C12.0849 11.4658 11.1824 12.3625 8.71988 9.91415C6.25738 7.46582 7.15988 6.56915 7.15988 6.56915L7.39821 6.33082C7.98738 5.74582 8.04321 4.80582 7.52905 4.11915L6.47905 2.71665C5.84238 1.86665 4.61321 1.75415 3.88405 2.47915L2.57571 3.77915C2.21488 4.13915 1.97321 4.60415 2.00238 5.12082C2.07738 6.44332 2.67571 9.28748 6.01238 12.6058C9.55155 16.1242 12.8724 16.2641 14.2299 16.1375C14.6599 16.0975 15.0332 15.8791 15.334 15.5791L16.5174 14.4025C17.3174 13.6083 17.0924 12.2458 16.069 11.69L14.4774 10.8241C13.8057 10.46 12.989 10.5666 12.464 11.0883Z" fill="#B32053"/>
</svg>
