<svg width="20" height="20" viewBox="0 0 20 20" fill="none" xmlns="http://www.w3.org/2000/svg">
<path d="M10 2C8.93913 2 7.92172 2.42143 7.17157 3.17157C6.42143 3.92172 6 4.93913 6 6C6 7.06087 6.42143 8.07828 7.17157 8.82843C7.92172 9.57857 8.93913 10 10 10C11.0609 10 12.0783 9.57857 12.8284 8.82843C13.5786 8.07828 14 7.06087 14 6C14 4.93913 13.5786 3.92172 12.8284 3.17157C12.0783 2.42143 11.0609 2 10 2ZM5.009 11C4.7456 10.9988 4.48456 11.0497 4.24087 11.1496C3.99718 11.2496 3.77564 11.3968 3.58896 11.5826C3.40229 11.7684 3.25417 11.9893 3.1531 12.2325C3.05203 12.4758 3 12.7366 3 13C3 14.691 3.833 15.966 5.135 16.797C6.183 17.465 7.53 17.845 9 17.96V14C9 13.4696 9.21071 12.9609 9.58579 12.5858C9.96086 12.2107 10.4696 12 11 12H16.732C16.5565 11.696 16.304 11.4435 16 11.268C15.6959 11.0924 15.3511 11 15 11H5.009ZM19 14.5V17.5C19 17.8978 18.842 18.2794 18.5607 18.5607C18.2794 18.842 17.8978 19 17.5 19H11.5C11.1022 19 10.7206 18.842 10.4393 18.5607C10.158 18.2794 10 17.8978 10 17.5V14.5C10 14.1022 10.158 13.7206 10.4393 13.4393C10.7206 13.158 11.1022 13 11.5 13H17.5C17.8978 13 18.2794 13.158 18.5607 13.4393C18.842 13.7206 19 14.1022 19 14.5ZM18 17.5V16.5C17.6022 16.5 17.2206 16.658 16.9393 16.9393C16.658 17.2206 16.5 17.6022 16.5 18H17.5C17.5 17.8674 17.5527 17.7402 17.6464 17.6464C17.7402 17.5527 17.8674 17.5 18 17.5ZM18 14.5C17.8674 14.5 17.7402 14.4473 17.6464 14.3536C17.5527 14.2598 17.5 14.1326 17.5 14H16.5C16.5 14.3978 16.658 14.7794 16.9393 15.0607C17.2206 15.342 17.6022 15.5 18 15.5V14.5ZM11.5 14C11.5 14.1326 11.4473 14.2598 11.3536 14.3536C11.2598 14.4473 11.1326 14.5 11 14.5V15.5C11.3978 15.5 11.7794 15.342 12.0607 15.0607C12.342 14.7794 12.5 14.3978 12.5 14H11.5ZM11 17.5C11.1326 17.5 11.2598 17.5527 11.3536 17.6464C11.4473 17.7402 11.5 17.8674 11.5 18H12.5C12.5 17.6022 12.342 17.2206 12.0607 16.9393C11.7794 16.658 11.3978 16.5 11 16.5V17.5ZM14.5 14.5C14.1022 14.5 13.7206 14.658 13.4393 14.9393C13.158 15.2206 13 15.6022 13 16C13 16.3978 13.158 16.7794 13.4393 17.0607C13.7206 17.342 14.1022 17.5 14.5 17.5C14.8978 17.5 15.2794 17.342 15.5607 17.0607C15.842 16.7794 16 16.3978 16 16C16 15.6022 15.842 15.2206 15.5607 14.9393C15.2794 14.658 14.8978 14.5 14.5 14.5Z" fill="black" fill-opacity="0.5"/>
</svg>
