<svg width="20" height="20" viewBox="0 0 20 20" fill="none" xmlns="http://www.w3.org/2000/svg">
<path d="M2.50423 2.50244H17.5042C17.7252 2.50244 17.9372 2.59024 18.0935 2.74652C18.2498 2.9028 18.3376 3.11476 18.3376 3.33577V16.6691C18.3376 16.8901 18.2498 17.1021 18.0935 17.2584C17.9372 17.4146 17.7252 17.5024 17.5042 17.5024H2.50423C2.28322 17.5024 2.07126 17.4146 1.91498 17.2584C1.7587 17.1021 1.6709 16.8901 1.6709 16.6691V3.33577C1.6709 3.11476 1.7587 2.9028 1.91498 2.74652C2.07126 2.59024 2.28322 2.50244 2.50423 2.50244ZM8.37923 9.16911C8.45142 8.81467 8.61465 8.48513 8.85286 8.21292C9.09107 7.94071 9.39604 7.73522 9.73778 7.61665C10.0795 7.49809 10.4462 7.47054 10.8018 7.53673C11.1574 7.60291 11.4897 7.76054 11.7659 7.99411L13.1826 7.04994C12.6958 6.51974 12.0668 6.14082 11.3705 5.95842C10.6742 5.77601 9.94021 5.79783 9.25602 6.02127C8.57183 6.2447 7.96639 6.66032 7.51199 7.21849C7.05759 7.77667 6.77341 8.45382 6.6934 9.16911H5.83756V10.8358H6.6934C6.77328 11.5512 7.05741 12.2286 7.51187 12.7869C7.96632 13.3453 8.57189 13.761 9.25625 13.9845C9.9406 14.2079 10.6748 14.2297 11.3712 14.0471C12.0676 13.8646 12.6967 13.4854 13.1834 12.9549L11.7659 12.0099C11.4897 12.2435 11.1574 12.4011 10.8018 12.4673C10.4462 12.5335 10.0795 12.506 9.73778 12.3874C9.39604 12.2688 9.09107 12.0633 8.85286 11.7911C8.61465 11.5189 8.45142 11.1894 8.37923 10.8349H12.5042V9.16827L8.37923 9.16911Z" fill="black" fill-opacity="0.5"/>
</svg>
